<?xml version="1.0" encoding="utf-8"?>
<!-- Generator: Adobe Illustrator 21.0.0, SVG Export Plug-In . SVG Version: 6.00 Build 0)  -->
<svg version="1.1" id="图层_1" xmlns="http://www.w3.org/2000/svg" xmlns:xlink="http://www.w3.org/1999/xlink" x="0px" y="0px"
	 viewBox="0 0 60 60" style="enable-background:new 0 0 60 60;" xml:space="preserve">
<style type="text/css">
	.st0{fill-rule:evenodd;clip-rule:evenodd;fill:#FFC800;}
	.st1{fill-rule:evenodd;clip-rule:evenodd;fill:#FF3B06;}
	.st2{fill-rule:evenodd;clip-rule:evenodd;fill:#DEDEDE;}
	.st3{fill-rule:evenodd;clip-rule:evenodd;fill:#BABABA;}
	.st4{fill-rule:evenodd;clip-rule:evenodd;fill:#7E8387;}
</style>
<g>
	<path class="st0" d="M42.1,34.1l-12.7,7.5c-4.1-2.5-11.9-6.9-11.9-6.9L3.4,48.5l11.3,0.2L14.9,60L30,44.9c1.8,1.7,4,3.8,3.9,3.8
		L45.1,60l0.3-11.3l11.3-0.2L42.1,34.1L42.1,34.1L42.1,34.1z"/>
	<path class="st1" d="M39.2,35.5l-9.9,6.1c-4.1-2.5-9.6-6.1-9.6-6.1L6.5,48.5l8.1,0.2l0.2,6.4l13-12.9c1.8,1.7,4,0,4,0.1l13.4,13.6
		l0.2-7.2l7.7-0.2L39.2,35.5L39.2,35.5z"/>
	<path class="st2" d="M37.4,42.4l4.3,0.7c0.1,0,0.3,0,0.4,0c0.6,0,1.2-0.2,1.6-0.5c0.6-0.5,1-1.2,1.1-2l0.6-4.2
		c0.1-0.9,0.7-1.7,1.6-2.1l3.8-1.9c0.7-0.3,1.2-0.9,1.4-1.6c0.1-0.3,0.1-0.5,0.1-0.9c0-0.4-0.1-0.9-0.3-1.3l-2-3.9
		c-0.2-0.4-0.3-0.8-0.3-1.2c0-0.5,0.1-0.9,0.3-1.3l2-3.9c0.2-0.4,0.3-0.8,0.3-1.3c0-0.3,0-0.6-0.1-0.9c-0.2-0.7-0.7-1.3-1.4-1.6
		l-3.9-2c-0.8-0.4-1.4-1.2-1.5-2.1l-0.6-4.2c-0.1-0.8-0.6-1.5-1.2-1.9C43.3,4.2,42.8,4,42.2,4c-0.2,0-0.3,0-0.5,0l-4.3,0.7
		C36.5,4.9,35.6,4.6,35,4l-3.1-3.1c-0.5-0.5-1.2-0.8-2-0.8c-0.8,0-1.5,0.3-2,0.8L24.9,4c-0.6,0.6-1.5,0.9-2.4,0.8L18.2,4
		c-0.7-0.1-1.5,0.1-2.1,0.5c-0.6,0.5-1,1.2-1.1,2l-0.6,4.2c-0.1,0.9-0.7,1.7-1.6,2.1l-3.8,1.9c-0.7,0.3-1.2,0.9-1.4,1.6
		c-0.1,0.3-0.1,0.5-0.1,0.9c0,0.4,0.1,0.9,0.3,1.3l2,3.9c0.2,0.4,0.3,0.8,0.3,1.2c0,0.5-0.1,0.9-0.3,1.3l-2,3.9
		c-0.2,0.4-0.3,0.8-0.3,1.3c0,0.3,0,0.6,0.1,0.9c0.2,0.7,0.7,1.3,1.4,1.6l3.9,2c0.8,0.4,1.4,1.2,1.5,2.1l0.6,4.2
		c0.1,0.8,0.6,1.5,1.2,1.9c0.5,0.3,1.2,0.5,1.9,0.4l4.3-0.7c0.9-0.1,1.7,0.1,2.4,0.8l3.1,3.1c0.5,0.5,1.2,0.8,2,0.8
		c0.8,0,1.5-0.3,2-0.8l3.1-3.1c0.5-0.5,1.2-0.8,1.9-0.8C37.1,42.3,37.2,42.4,37.4,42.4L37.4,42.4L37.4,42.4z"/>
	<path class="st3" d="M30,39.5c-9,0-16.3-7.3-16.3-16.3c0-9,7.3-16.3,16.3-16.3c9,0,16.3,7.3,16.3,16.3C46.3,32.2,39,39.5,30,39.5
		L30,39.5z"/>
	<path class="st2" d="M30,36.1c-7.1,0-12.9-5.8-12.9-12.9c0-7.1,5.8-12.9,12.9-12.9c7.1,0,12.9,5.8,12.9,12.9
		C42.9,30.3,37.1,36.1,30,36.1L30,36.1z"/>
	<path class="st4" d="M27.6,28.9c-1.1,0-1.4,0-2,0.1c0.2-1.4,0.3-1.7,0.5-2.4c0.4-1.1,1.2-2.1,2.3-3.1c0.6-0.5,0.7-0.6,2.7-2
		c1.8-1.2,2.4-2,2.4-3.1c0-1.4-1.1-2.2-3-2.2c-1.2,0-2.1,0.4-2.6,1.2c-0.3,0.5-0.5,0.9-0.6,1.8l-1.5-0.3c0.3-1.3,0.5-1.9,1.1-2.6
		c0.8-0.9,2-1.4,3.6-1.4c2.7,0,4.5,1.4,4.5,3.5c0,0.9-0.4,1.8-1.1,2.6c-0.5,0.6-1,1-3.1,2.3c-1.4,1-2,1.5-2.6,2.2
		c-0.6,0.7-0.8,1.2-1,2.1h5.7c0.9,0,1.5,0,2.2-0.1V29c-0.7-0.1-1.3-0.1-2.2-0.1L27.6,28.9L27.6,28.9L27.6,28.9z"/>
</g>
</svg>
